HIERARCHY
ROOT Hips
{
	OFFSET 0.000000 0.000000 0.000000
	CHANNELS 6 Xposition Yposition Zposition Zrotation Yrotation Xrotation 
	JOINT LeftUpLeg_virtual
	{
		OFFSET 0.000000 0.000000 0.000000
		CHANNELS 3 Zrotation Yrotation Xrotation
		JOINT LeftUpLeg
		{
			OFFSET 10.205400 -3.823500 0.155100
			CHANNELS 3 Zrotation Yrotation Xrotation
			JOINT LeftLeg
			{
				OFFSET 0.708757 -12.982077 0.567790
				CHANNELS 3 Zrotation Yrotation Xrotation
				JOINT LeftFoot
				{
					OFFSET -0.708756 -10.717838 -2.184338
					CHANNELS 3 Zrotation Yrotation Xrotation
					JOINT LeftToeBase
					{
						OFFSET 0.108149 -7.191104 7.560241
						CHANNELS 3 Zrotation Yrotation Xrotation
						End Site
						{
							OFFSET 0.000000 0.000000 0.000000
						}
					}
				}
			}
		}
	}
	JOINT RightUpLeg_virtual
	{
		OFFSET 0.000000 0.000000 0.000000
		CHANNELS 3 Zrotation Yrotation Xrotation
		JOINT RightUpLeg
		{
			OFFSET -10.205400 -3.823500 0.005500
			CHANNELS 3 Zrotation Yrotation Xrotation
			JOINT RightLeg
			{
				OFFSET -0.708756 -12.982134 0.610632
				CHANNELS 3 Zrotation Yrotation Xrotation
				JOINT RightFoot
				{
					OFFSET 0.708754 -10.717769 -1.945823
					CHANNELS 3 Zrotation Yrotation Xrotation
					JOINT RightToeBase
					{
						OFFSET -0.108140 -7.191069 7.372968
						CHANNELS 3 Zrotation Yrotation Xrotation
						End Site
						{
							OFFSET 0.000000 0.000000 0.000000
						}
					}
				}
			}
		}
	}
	JOINT Spine_virtual
	{
		OFFSET 0.000000 0.000000 0.000000
		CHANNELS 3 Zrotation Yrotation Xrotation
		JOINT Spine
		{
			OFFSET 0.000000 6.876099 0.125700
			CHANNELS 3 Zrotation Yrotation Xrotation
			JOINT Spine1
			{
				OFFSET 0.000000 8.022060 0.146608
				CHANNELS 3 Zrotation Yrotation Xrotation
				JOINT Spine2
				{
					OFFSET 0.000000 9.168068 0.167552
					CHANNELS 3 Zrotation Yrotation Xrotation
					JOINT Neck_virtual
					{
						OFFSET 0.000000 0.000000 0.000000
						CHANNELS 3 Zrotation Yrotation Xrotation
						JOINT Neck
						{
							OFFSET 0.000000 10.314075 0.188496
							CHANNELS 3 Zrotation Yrotation Xrotation
							JOINT Head
							{
								OFFSET 0.000000 7.643700 -2.377400
								CHANNELS 3 Zrotation Yrotation Xrotation
								End Site
								{
									OFFSET 0.000000 0.000000 0.000000
								}
							}
						}
					}
					JOINT LeftShoulder_virtual
					{
						OFFSET 0.000000 0.000000 0.000000
						CHANNELS 3 Zrotation Yrotation Xrotation
						JOINT LeftShoulder
						{
							OFFSET 4.392200 8.824978 0.174984
							CHANNELS 3 Zrotation Yrotation Xrotation
							JOINT LeftArm
							{
								OFFSET 8.771219 -2.981674 -0.026999
								CHANNELS 3 Zrotation Yrotation Xrotation
								JOINT LeftForeArm
								{
									OFFSET 8.512804 0.000000 -0.000000
									CHANNELS 3 Zrotation Yrotation Xrotation
									JOINT LeftHand
									{
										OFFSET 18.484802 0.000000 -0.000000
										CHANNELS 3 Zrotation Yrotation Xrotation
										End Site
										{
											OFFSET 0.000000 0.000000 0.000000
										}
									}
								}
							}
						}
					}
					JOINT RightShoulder_virtual
					{
						OFFSET 0.000000 0.000000 0.000000
						CHANNELS 3 Zrotation Yrotation Xrotation
						JOINT RightShoulder
						{
							OFFSET -4.392200 8.824993 0.141379
							CHANNELS 3 Zrotation Yrotation Xrotation
							JOINT RightArm
							{
								OFFSET -8.771282 -2.981682 -0.094208
								CHANNELS 3 Zrotation Yrotation Xrotation
								JOINT RightForeArm
								{
									OFFSET -8.494598 0.000000 0.000000
									CHANNELS 3 Zrotation Yrotation Xrotation
									JOINT RightHand
									{
										OFFSET -18.483803 0.000000 0.000001
										CHANNELS 3 Zrotation Yrotation Xrotation
										End Site
										{
											OFFSET 0.000000 0.000000 0.000000
										}
									}
								}
							}
						}
					}
				}
			}
		}
	}
}
MOTION
Frames: 11
Frame Time: 0.033333
12.032585 35.181732 11.843326 -179.841640 -15.198638 -179.964857 -1.541235 -6.562702 7.223518 14.070683 -5.176236 -22.402440 6.947831 2.593725 33.405410 -4.879237 6.437510 7.142313 0.000000 0.000000 0.000000 3.086321 -5.185285 6.034732 5.301408 5.929806 -14.631534 -0.139168 1.694722 21.743622 1.058291 3.633637 -0.620799 0.000000 0.000000 0.000000 -0.193050 -3.041063 -10.787085 3.743768 8.467034 -4.985847 0.601682 -3.219799 9.330918 0.004212 -0.039943 0.051058 -0.085928 -0.749514 12.793940 0.356429 -8.218306 23.826425 0.000000 0.000000 0.000000 1.292691 -0.507982 9.656614 -5.846519 -6.489778 4.021988 -52.893265 23.073200 -15.296842 -142.077347 -81.660519 154.389282 0.000000 0.000000 0.000000 -2.157753 0.879812 8.979673 17.326377 -0.185547 -2.477796 56.690307 -29.824916 -4.035394 -166.388449 76.067141 -171.806715 0.000000 0.000000 0.000000 
12.056652 35.185284 11.845006 -179.685338 -15.193896 -179.895407 -1.408739 -6.617375 7.113091 14.173228 -5.374196 -22.369775 7.032691 2.459203 33.803118 -4.794847 6.485920 6.696152 0.000000 0.000000 0.000000 3.003340 -4.985938 6.071466 5.836455 5.546529 -14.499778 0.150830 0.695566 22.086755 1.143859 3.708370 -0.823669 0.000000 0.000000 0.000000 -0.137944 -3.024009 -10.947825 3.718336 8.418528 -5.018203 0.617008 -3.247175 9.302142 -0.045546 -0.038869 0.114556 -0.070753 -0.743144 12.688066 0.356325 -8.232833 23.775079 0.000000 0.000000 0.000000 1.277553 -0.551945 9.586492 -6.053834 -6.807583 4.049824 -53.267542 22.409390 -14.605610 -143.396816 -81.533805 155.748913 0.000000 0.000000 0.000000 -2.092582 0.859560 8.940671 17.615153 -0.132046 -2.506034 57.097783 -29.557125 -3.980302 -165.875693 75.974824 -171.414730 0.000000 0.000000 0.000000 
12.083352 35.180264 11.841973 -179.694231 -14.932434 -179.925884 -1.416486 -6.670525 7.077726 14.127644 -5.320743 -22.159857 7.058365 2.331745 33.912835 -4.738083 6.532657 6.675421 0.000000 0.000000 0.000000 3.000717 -4.986690 6.010985 5.873289 5.658076 -14.447793 0.149039 0.665003 22.054992 1.215865 3.763300 -0.718697 0.000000 0.000000 0.000000 -0.146986 -3.057643 -11.023525 3.564607 8.380152 -4.994970 0.570501 -3.246005 9.278424 0.001014 0.016188 0.093370 -0.119259 -0.759737 12.616807 0.258905 -8.119833 23.633756 0.000000 0.000000 0.000000 1.228289 -0.587459 9.539158 -6.361475 -7.267981 4.094382 -53.753015 21.468794 -13.366978 -143.836776 -81.379983 156.228761 0.000000 0.000000 0.000000 -2.102043 0.835809 8.899931 18.119175 -0.105989 -2.574134 58.095656 -28.936035 -4.239209 -165.107624 75.994905 -170.810559 0.000000 0.000000 0.000000 
12.107161 35.174397 11.825478 -179.721839 -14.632118 -179.886842 -1.381893 -6.875064 7.113695 14.002288 -5.172369 -21.996713 7.085813 2.124230 33.976011 -4.604791 6.628049 6.686146 0.000000 0.000000 0.000000 2.976494 -5.053529 5.963798 5.905441 5.743234 -14.516573 0.170284 0.760953 22.041517 1.285249 3.803776 -0.591118 0.000000 0.000000 0.000000 -0.142923 -2.971900 -11.144816 3.372256 8.256328 -5.004725 0.503283 -3.262264 9.329971 -0.009689 -0.038893 0.114763 -0.180189 -0.761873 12.515867 0.057025 -8.002220 23.420623 0.000000 0.000000 0.000000 1.194965 -0.559615 9.417455 -6.645313 -7.772852 4.150279 -54.435689 20.583701 -11.844554 -143.997490 -81.318388 156.427082 0.000000 0.000000 0.000000 -2.142130 0.836876 8.829270 18.712490 0.037587 -2.644217 59.367663 -28.065982 -4.297666 -163.584328 76.113340 -169.483085 0.000000 0.000000 0.000000 
12.121672 35.163773 11.798160 -179.667621 -14.169984 -179.921335 -1.288123 -6.934273 7.265391 13.863816 -4.937711 -21.850909 7.070747 1.950580 34.053561 -4.475009 6.696292 6.698773 0.000000 0.000000 0.000000 2.992365 -5.045317 6.026342 5.929242 5.919410 -14.591149 0.157555 0.779230 22.083955 1.355250 3.844733 -0.447371 0.000000 0.000000 0.000000 -0.033511 -3.028134 -11.123948 3.259314 8.228308 -4.967812 0.441786 -3.198056 9.255763 -0.015697 -0.027447 0.084944 -0.295127 -0.680208 12.451387 -0.239350 -7.909335 23.204386 0.000000 0.000000 0.000000 1.122839 -0.530297 9.359495 -6.777715 -8.244109 4.326950 -55.021265 19.952190 -10.413971 -144.190839 -81.460033 156.687108 0.000000 0.000000 0.000000 -2.207116 0.833151 8.855378 19.203767 0.185162 -2.785118 60.517962 -27.293810 -4.212496 -162.625015 76.215404 -168.664965 0.000000 0.000000 0.000000 
12.129066 35.151939 11.766026 -179.688002 -13.740227 -179.911254 -1.249504 -6.917742 7.410000 13.702550 -4.668226 -21.758312 7.039783 1.733202 34.075892 -4.291302 6.778567 6.802856 0.000000 0.000000 0.000000 2.982356 -4.984730 6.101497 5.924718 6.108769 -14.757718 0.125176 0.794262 22.196573 1.444190 3.931351 -0.467317 0.000000 0.000000 0.000000 0.011641 -3.016028 -11.109173 3.169339 8.208725 -4.981633 0.398167 -3.131993 9.245921 -0.000114 -0.109790 0.134798 -0.368024 -0.675737 12.407839 -0.480624 -7.780609 22.923886 0.000000 0.000000 0.000000 1.033988 -0.442294 9.280269 -6.721301 -8.599220 4.313648 -55.425028 19.740949 -9.261593 -142.606714 -81.810694 155.193864 0.000000 0.000000 0.000000 -2.256554 0.935698 8.767017 19.472036 0.415581 -2.752715 61.267787 -26.749744 -3.597832 -160.645967 76.367423 -166.839747 0.000000 0.000000 0.000000 
12.133168 35.142845 11.739402 -179.687565 -13.383702 -179.895093 -1.222380 -6.892619 7.538123 13.644501 -4.432986 -21.688601 6.993642 1.668993 34.158452 -4.196227 6.772878 6.739906 0.000000 0.000000 0.000000 2.947665 -4.911113 6.191474 5.979473 6.248397 -14.877815 0.115427 0.953824 22.226936 1.384213 3.868538 -0.349429 0.000000 0.000000 0.000000 0.070138 -2.973309 -11.098797 3.125667 8.100660 -4.961291 0.345421 -3.118181 9.202691 -0.078015 -0.024550 0.058583 -0.381459 -0.695819 12.414173 -0.701247 -7.692444 22.625220 0.000000 0.000000 0.000000 1.042577 -0.390462 9.364083 -6.491552 -8.859983 4.423826 -55.791765 19.870883 -8.477919 -140.769038 -82.267258 153.433479 0.000000 0.000000 0.000000 -2.272524 0.937684 8.835966 19.410055 0.578555 -2.828237 61.425981 -26.464285 -3.164936 -160.431663 76.668026 -166.714754 0.000000 0.000000 0.000000 
12.128450 35.141415 11.719635 -179.672211 -13.059328 -179.892143 -1.179769 -6.799464 7.607002 13.546981 -4.143335 -21.589653 6.924849 1.539110 34.155454 -4.028774 6.799041 6.792991 0.000000 0.000000 0.000000 2.949979 -4.806290 6.253142 6.044732 6.383169 -14.940701 0.114795 1.276229 22.191196 1.292382 3.793825 -0.266999 0.000000 0.000000 0.000000 0.064859 -2.892718 -11.069592 3.114368 8.016848 -4.978117 0.348795 -3.105800 9.186589 -0.064613 -0.026758 0.081715 -0.418067 -0.596718 12.368807 -0.902747 -7.681387 22.307058 0.000000 0.000000 0.000000 1.018103 -0.361770 9.360243 -6.064765 -8.988989 4.499267 -56.100636 20.223162 -7.990290 -138.663796 -82.800689 151.401101 0.000000 0.000000 0.000000 -2.288484 1.065085 8.776298 19.145888 0.598469 -2.766450 61.339586 -26.422785 -2.803607 -159.011667 76.888396 -165.379043 0.000000 0.000000 0.000000 
12.122005 35.147320 11.712669 -179.867745 -12.856013 -179.864877 -1.392521 -6.768624 7.616217 13.501703 -3.975754 -21.461224 6.862249 1.456859 34.108827 -3.878479 6.809071 6.829593 0.000000 0.000000 0.000000 2.733602 -4.752218 6.274305 6.079548 6.507610 -14.935042 0.103867 1.473507 22.126832 1.245997 3.759822 -0.180257 0.000000 0.000000 0.000000 -0.082232 -2.958214 -11.070624 2.990688 7.904586 -5.016073 0.326173 -3.095782 9.179510 -0.028984 -0.062865 0.093466 -0.368440 -0.594636 12.316402 -0.996857 -7.660324 22.026950 0.000000 0.000000 0.000000 1.091049 -0.288026 9.316539 -5.635266 -8.851585 4.498012 -56.342606 20.832610 -7.883228 -136.416035 -83.108492 149.151182 0.000000 0.000000 0.000000 -2.242987 1.185525 8.755667 18.707676 0.620651 -2.931200 60.994095 -26.581355 -2.711974 -158.157770 77.095528 -164.605961 0.000000 0.000000 0.000000 
12.119443 35.157711 11.719901 -179.879944 -12.653947 -179.860437 -1.422029 -6.674841 7.539612 13.524846 -3.886782 -21.308175 6.808142 1.471688 34.068355 -3.806887 6.798967 6.833069 0.000000 0.000000 0.000000 2.709094 -4.649560 6.229944 6.109716 6.598087 -14.873166 0.062447 1.562664 22.019495 1.237981 3.762910 -0.044511 0.000000 0.000000 0.000000 -0.133490 -2.884035 -11.073349 2.937926 7.803021 -5.088603 0.352941 -3.064210 9.155054 -0.041862 -0.056357 0.080801 -0.296424 -0.579920 12.326037 -0.984103 -7.642556 21.837351 0.000000 0.000000 0.000000 1.180966 -0.256825 9.358384 -5.124600 -8.623377 4.479457 -56.705170 21.262413 -8.314937 -135.873035 -83.143333 148.578280 0.000000 0.000000 0.000000 -2.181280 1.223062 8.784647 18.268820 0.419001 -3.064273 60.773671 -26.798911 -3.006520 -157.762466 77.131100 -164.257635 0.000000 0.000000 0.000000 
12.124575 35.171463 11.744196 -179.884479 -12.479375 -179.833198 -1.453659 -6.580477 7.421805 13.562643 -3.892514 -21.180811 6.770050 1.507273 33.986441 -3.768887 6.811469 6.872135 0.000000 0.000000 0.000000 2.713108 -4.529664 6.127189 6.096924 6.613402 -14.850194 -0.005720 1.473808 21.932677 1.314166 3.848493 0.018017 0.000000 0.000000 0.000000 -0.212586 -2.713585 -11.109723 2.856284 7.748394 -5.208682 0.398964 -2.996526 9.188794 -0.028198 -0.021743 0.070197 -0.215302 -0.585289 12.360358 -0.894539 -7.650287 21.701164 0.000000 0.000000 0.000000 1.273497 -0.306107 9.436638 -4.692828 -8.248364 4.297349 -57.099459 21.558505 -9.127845 -137.252979 -82.927731 149.858558 0.000000 0.000000 0.000000 -2.146408 1.148477 8.779090 17.897467 0.036838 -3.180599 60.842608 -27.078148 -3.598568 -157.968888 77.078692 -164.535036 0.000000 0.000000 0.000000 
